<svg xmlns="http://www.w3.org/2000/svg" fill="none" viewBox="10.62 10.62 46.75 46.75">
<path fill-rule="evenodd" clip-rule="evenodd" d="M36.125 10.625V17.1315C39.1385 17.5073 41.9073 18.6719 44.2178 20.4122L49.1325 15.4974L52.1379 18.5026L47.2688 23.3717C49.1855 25.7617 50.4702 28.6807 50.8685 31.875H57.375V36.125H50.8685C50.4815 39.2289 49.2575 42.073 47.4297 44.4244L52.1381 49.1328L49.1331 52.1381L44.4247 47.4297C42.0733 49.2575 39.2292 50.4815 36.125 50.8685V57.375H31.875V50.8685C28.6807 50.4702 25.7617 49.1855 23.3717 47.2688L18.5024 52.1381L15.4972 49.1328L20.4122 44.2178C18.6719 41.9073 17.5073 39.1385 17.1315 36.125H10.625V31.875H17.1315C17.5186 28.7708 18.7425 25.9268 20.5704 23.5754L15.4976 18.5026L18.5028 15.4974L23.5756 20.5702C25.927 18.7424 28.7711 17.5186 31.875 17.1315V10.625H36.125ZM34 46.75C41.0417 46.75 46.75 41.0417 46.75 34C46.75 26.9584 41.0417 21.25 34 21.25C26.9584 21.25 21.25 26.9584 21.25 34C21.25 41.0417 26.9584 46.75 34 46.75ZM34 39.3125C34 41.0728 32.5728 42.5 30.8125 42.5C29.0521 42.5 27.625 41.0728 27.625 39.3125C27.625 37.5521 29.0521 36.125 30.8125 36.125C32.5728 36.125 34 37.5521 34 39.3125ZM36.125 34C38.4721 34 40.375 32.0971 40.375 29.75C40.375 27.4028 38.4721 25.5 36.125 25.5C33.7779 25.5 31.875 27.4028 31.875 29.75C31.875 32.0971 33.7779 34 36.125 34Z" fill="white" stroke="white" stroke-width="0.0022"/>
</svg>